<svg width="22" height="22" viewBox="0 0 22 22" fill="none" xmlns="http://www.w3.org/2000/svg">
<path d="M0.165569 1.12311C0.304865 0.787041 0.524802 0.503075 0.799793 0.304251C1.07478 0.105426 1.39353 -8.19162e-05 1.71893 4.77188e-08H20.2835C20.9496 4.77188e-08 21.5512 0.437067 21.8349 1.12311C22.1228 1.80916 22.0325 2.62093 21.577 3.20827L13.7515 14.1875V20.4292C13.7515 21.0234 13.4593 21.5685 12.9909 21.8337C12.5268 22.0989 11.9681 22.0449 11.5513 21.6864L8.80098 19.3292C8.4529 19.0345 8.25092 18.568 8.25092 18.072V14.1875L0.388559 3.20827C0.182498 2.92046 0.052157 2.57173 0.0126904 2.20261C-0.0267762 1.83349 0.0262527 1.45915 0.165612 1.12311H0.165569Z" fill="#3AAF4B"/>
</svg>
