<svg width="14" height="14" viewBox="0 0 14 14" fill="none" xmlns="http://www.w3.org/2000/svg">
<path fill-rule="evenodd" clip-rule="evenodd" d="M13.5948 1.88246C14.0027 1.47456 14.0027 0.813221 13.5948 0.40532C13.1869 -0.00258228 12.5256 -0.00258216 12.1177 0.40532L7.00008 5.52294L1.88246 0.40532C1.47456 -0.00258201 0.813221 -0.00258237 0.40532 0.40532C-0.00258237 0.813221 -0.0025821 1.47456 0.40532 1.88246L5.52294 7.00008L0.40532 12.1177C-0.00258198 12.5256 -0.00258237 13.1869 0.40532 13.5948C0.813221 14.0027 1.47456 14.0027 1.88246 13.5948L7.00008 8.47722L12.1177 13.5948C12.5256 14.0027 13.1869 14.0027 13.5948 13.5948C14.0027 13.1869 14.0027 12.5256 13.5948 12.1177L8.47722 7.00008L13.5948 1.88246Z" fill="white"/>
<path fill-rule="evenodd" clip-rule="evenodd" d="M13.5948 1.88246C14.0027 1.47456 14.0027 0.813221 13.5948 0.40532C13.1869 -0.00258228 12.5256 -0.00258216 12.1177 0.40532L7.00008 5.52294L1.88246 0.40532C1.47456 -0.00258201 0.813221 -0.00258237 0.40532 0.40532C-0.00258237 0.813221 -0.0025821 1.47456 0.40532 1.88246L5.52294 7.00008L0.40532 12.1177C-0.00258198 12.5256 -0.00258237 13.1869 0.40532 13.5948C0.813221 14.0027 1.47456 14.0027 1.88246 13.5948L7.00008 8.47722L12.1177 13.5948C12.5256 14.0027 13.1869 14.0027 13.5948 13.5948C14.0027 13.1869 14.0027 12.5256 13.5948 12.1177L8.47722 7.00008L13.5948 1.88246Z" fill="white"/>
</svg>
