<svg width="24" height="24" viewBox="0 0 24 24" fill="none" xmlns="http://www.w3.org/2000/svg">
<rect width="24" height="24" rx="12" fill="#3AAF4B"/>
<path fill-rule="evenodd" clip-rule="evenodd" d="M4.53121 10.1923L4.53121 10.1923L4.53121 10.1923C4.55579 10.0121 4.58046 9.83129 4.61345 9.65211C5.05726 7.18513 7.01601 5.16548 9.46527 4.64471C12.5886 3.9804 15.6418 5.65287 16.7664 8.64395C17.6306 10.9474 17.0066 13.6614 15.2281 15.3605C14.1636 16.3787 12.9023 16.9896 11.4407 17.1131C9.18497 17.3001 7.31632 16.5056 5.87813 14.7496C5.07061 13.7649 4.63348 12.6198 4.52669 11.348C4.52669 11.3247 4.51999 11.3 4.51337 11.2758C4.50956 11.2618 4.50578 11.2479 4.50334 11.2345V10.4132L4.5 10.4166C4.51078 10.342 4.52099 10.2672 4.53121 10.1923ZM6.382 10.8105C6.38867 13.2508 8.34074 15.2437 10.8034 15.2604C13.2026 15.2771 15.2414 13.3376 15.2614 10.8505C15.2781 8.48372 13.3928 6.40398 10.8434 6.38395C8.43418 6.36726 6.41537 8.28342 6.382 10.8105ZM17.684 19.4999C17.1701 19.4165 16.7997 19.106 16.4527 18.7421C16.0291 18.303 15.5937 17.8717 15.1585 17.4407L15.1584 17.4405C15.028 17.3114 14.8976 17.1823 14.7676 17.053C14.7435 17.0289 14.7123 17.0106 14.6749 16.9886C14.6552 16.977 14.6338 16.9644 14.6107 16.9495C15.5784 16.3319 16.3359 15.5741 16.9265 14.6494C16.9437 14.6652 16.959 14.6784 16.973 14.6906C16.9917 14.7068 17.0081 14.7209 17.0233 14.7362C17.6807 15.3905 18.338 16.0448 18.9887 16.7024C19.6895 17.4102 19.6661 18.4617 18.942 19.1027C18.7218 19.2963 18.4648 19.4165 18.1745 19.4699C18.1478 19.4765 18.1211 19.4866 18.0944 19.4966H17.684V19.4999ZM13.4328 13.2338C13.1425 12.7631 12.7487 12.4026 12.2549 12.1289V12.1255C13.3127 11.1541 13.1759 9.69527 12.3683 8.90076C11.5475 8.0929 10.2361 8.06286 9.3785 8.80729C8.54762 9.5317 8.24396 11.0773 9.37183 12.1189C9.30729 12.1673 9.24153 12.2142 9.17584 12.261C9.02417 12.3692 8.87287 12.4771 8.73782 12.6029C8.59446 12.7366 8.4688 12.8898 8.34408 13.0418C8.29752 13.0985 8.25109 13.1551 8.20392 13.2105C9.52198 14.7127 12.0013 14.8128 13.4328 13.2338Z" fill="white"/>
<path fill-rule="evenodd" clip-rule="evenodd" d="M4.53121 10.1923L4.53121 10.1923L4.53121 10.1923C4.55579 10.0121 4.58046 9.83129 4.61345 9.65211C5.05726 7.18513 7.01601 5.16548 9.46527 4.64471C12.5886 3.9804 15.6418 5.65287 16.7664 8.64395C17.6306 10.9474 17.0066 13.6614 15.2281 15.3605C14.1636 16.3787 12.9023 16.9896 11.4407 17.1131C9.18497 17.3001 7.31632 16.5056 5.87813 14.7496C5.07061 13.7649 4.63348 12.6198 4.52669 11.348C4.52669 11.3247 4.51999 11.3 4.51337 11.2758C4.50956 11.2618 4.50578 11.2479 4.50334 11.2345V10.4132L4.5 10.4166C4.51078 10.342 4.52099 10.2672 4.53121 10.1923ZM6.382 10.8105C6.38867 13.2508 8.34074 15.2437 10.8034 15.2604C13.2026 15.2771 15.2414 13.3376 15.2614 10.8505C15.2781 8.48372 13.3928 6.40398 10.8434 6.38395C8.43418 6.36726 6.41537 8.28342 6.382 10.8105ZM17.684 19.4999C17.1701 19.4165 16.7997 19.106 16.4527 18.7421C16.0291 18.303 15.5937 17.8717 15.1585 17.4407L15.1584 17.4405C15.028 17.3114 14.8976 17.1823 14.7676 17.053C14.7435 17.0289 14.7123 17.0106 14.6749 16.9886C14.6552 16.977 14.6338 16.9644 14.6107 16.9495C15.5784 16.3319 16.3359 15.5741 16.9265 14.6494C16.9437 14.6652 16.959 14.6784 16.973 14.6906C16.9917 14.7068 17.0081 14.7209 17.0233 14.7362C17.6807 15.3905 18.338 16.0448 18.9887 16.7024C19.6895 17.4102 19.6661 18.4617 18.942 19.1027C18.7218 19.2963 18.4648 19.4165 18.1745 19.4699C18.1478 19.4765 18.1211 19.4866 18.0944 19.4966H17.684V19.4999ZM13.4328 13.2338C13.1425 12.7631 12.7487 12.4026 12.2549 12.1289V12.1255C13.3127 11.1541 13.1759 9.69527 12.3683 8.90076C11.5475 8.0929 10.2361 8.06286 9.3785 8.80729C8.54762 9.5317 8.24396 11.0773 9.37183 12.1189C9.30729 12.1673 9.24153 12.2142 9.17584 12.261C9.02417 12.3692 8.87287 12.4771 8.73782 12.6029C8.59446 12.7366 8.4688 12.8898 8.34408 13.0418C8.29752 13.0985 8.25109 13.1551 8.20392 13.2105C9.52198 14.7127 12.0013 14.8128 13.4328 13.2338Z" fill="white"/>
</svg>
